<svg width="124" height="114" viewBox="0 0 124 114" fill="none" xmlns="http://www.w3.org/2000/svg">
<path d="M18.7958 85.0783C-34.046 31.6661 101.647 -24.9862 112.995 44.0567C120.559 90.0702 61.9173 128.665 18.7958 85.0783Z" fill="#88CBFF"/>
<path d="M107.312 57.7133C121.004 124.213 -9.64539 100.304 15.7803 42.3983C32.7246 3.8079 96.1398 3.44673 107.312 57.7133Z" stroke="black" stroke-width="2" stroke-miterlimit="10" stroke-linecap="round"/>
<path d="M72.1538 31.6129C66.5554 31.6129 62 36.0704 62 41.5484H63.8462C63.8462 37.0658 67.5727 33.4194 72.1538 33.4194V31.6129Z" fill="black"/>
<path d="M80.4615 41.5484C80.4615 46.031 76.735 49.6774 72.1538 49.6774V51.4839C77.7523 51.4839 82.3077 47.0264 82.3077 41.5484H80.4615Z" fill="black"/>
<path d="M86 41.5484C86 34.0778 79.7886 28 72.1538 28C66.8516 28 62.2429 30.9337 59.9168 35.2258H38.9231C38.4124 35.2258 38 35.6293 38 36.129V83.0968C38 83.5965 38.4124 84 38.9231 84H79.5385C80.0491 84 80.4615 83.5965 80.4615 83.0968V52.362C83.8167 49.8869 86 45.9679 86 41.5484ZM61.1026 49.6774H43.5385V40.6452H58.3546C58.3343 40.9451 58.3077 41.2432 58.3077 41.5484C58.3077 44.6003 59.3565 47.4105 61.1026 49.6774ZM78.6154 82.1935H39.8462V37.0323H59.1154C58.9022 37.6193 58.7156 38.2182 58.5862 38.8387H42.6154C42.1047 38.8387 41.6923 39.2423 41.6923 39.7419V50.5806C41.6923 51.0803 42.1047 51.4839 42.6154 51.4839H62.7716C65.242 53.7186 68.5319 55.0968 72.1538 55.0968C74.4872 55.0968 76.6845 54.5243 78.6154 53.5223V82.1935ZM72.1538 53.2903C65.5373 53.2903 60.1538 48.0227 60.1538 41.5484C60.1538 35.0741 65.5373 29.8065 72.1538 29.8065C78.7704 29.8065 84.1538 35.0741 84.1538 41.5484C84.1538 48.0227 78.7704 53.2903 72.1538 53.2903Z" fill="black"/>
<path d="M73.0769 46.0645C74.6035 46.0645 75.8462 44.8486 75.8462 43.3548C75.8462 41.8611 74.6035 40.6452 73.0769 40.6452H71.2308C70.7215 40.6452 70.3077 40.2403 70.3077 39.7419C70.3077 39.2436 70.7215 38.8387 71.2308 38.8387H75.8462V37.0323H73.0769V35.2258H71.2308V37.0323C69.7042 37.0323 68.4615 38.2482 68.4615 39.7419C68.4615 41.2357 69.7042 42.4516 71.2308 42.4516H73.0769C73.5862 42.4516 74 42.8565 74 43.3548C74 43.8532 73.5862 44.2581 73.0769 44.2581H68.4615V46.0645H71.2308V47.871H73.0769V46.0645Z" fill="black"/>
<path d="M48.1538 55.0968H42.6154C42.1047 55.0968 41.6923 55.5003 41.6923 56V61.4194C41.6923 61.919 42.1047 62.3226 42.6154 62.3226H48.1538C48.6645 62.3226 49.0769 61.919 49.0769 61.4194V56C49.0769 55.5003 48.6645 55.0968 48.1538 55.0968ZM47.2308 60.5161H43.5385V56.9032H47.2308V60.5161Z" fill="black"/>
<path d="M57.3846 55.0968H51.8462C51.3355 55.0968 50.9231 55.5003 50.9231 56V61.4194C50.9231 61.919 51.3355 62.3226 51.8462 62.3226H57.3846C57.8953 62.3226 58.3077 61.919 58.3077 61.4194V56C58.3077 55.5003 57.8953 55.0968 57.3846 55.0968ZM56.4615 60.5161H52.7692V56.9032H56.4615V60.5161Z" fill="black"/>
<path d="M66.6154 55.0968H61.0769C60.5663 55.0968 60.1538 55.5003 60.1538 56V61.4194C60.1538 61.919 60.5663 62.3226 61.0769 62.3226H66.6154C67.1261 62.3226 67.5385 61.919 67.5385 61.4194V56C67.5385 55.5003 67.1261 55.0968 66.6154 55.0968ZM65.6923 60.5161H62V56.9032H65.6923V60.5161Z" fill="black"/>
<path d="M48.1538 64.129H42.6154C42.1047 64.129 41.6923 64.5326 41.6923 65.0323V70.4516C41.6923 70.9513 42.1047 71.3548 42.6154 71.3548H48.1538C48.6645 71.3548 49.0769 70.9513 49.0769 70.4516V65.0323C49.0769 64.5326 48.6645 64.129 48.1538 64.129ZM47.2308 69.5484H43.5385V65.9355H47.2308V69.5484Z" fill="black"/>
<path d="M57.3846 64.129H51.8462C51.3355 64.129 50.9231 64.5326 50.9231 65.0323V70.4516C50.9231 70.9513 51.3355 71.3548 51.8462 71.3548H57.3846C57.8953 71.3548 58.3077 70.9513 58.3077 70.4516V65.0323C58.3077 64.5326 57.8953 64.129 57.3846 64.129ZM56.4615 69.5484H52.7692V65.9355H56.4615V69.5484Z" fill="black"/>
<path d="M66.6154 64.129H61.0769C60.5663 64.129 60.1538 64.5326 60.1538 65.0323V70.4516C60.1538 70.9513 60.5663 71.3548 61.0769 71.3548H66.6154C67.1261 71.3548 67.5385 70.9513 67.5385 70.4516V65.0323C67.5385 64.5326 67.1261 64.129 66.6154 64.129ZM65.6923 69.5484H62V65.9355H65.6923V69.5484Z" fill="black"/>
<path d="M69.3846 65.0323V79.4839C69.3846 79.9836 69.797 80.3871 70.3077 80.3871H75.8462C76.3568 80.3871 76.7692 79.9836 76.7692 79.4839V65.0323C76.7692 64.5326 76.3568 64.129 75.8462 64.129H70.3077C69.797 64.129 69.3846 64.5326 69.3846 65.0323ZM71.2308 65.9355H74.9231V78.5806H71.2308V65.9355Z" fill="black"/>
<path d="M48.1538 73.1613H42.6154C42.1047 73.1613 41.6923 73.5648 41.6923 74.0645V79.4839C41.6923 79.9836 42.1047 80.3871 42.6154 80.3871H48.1538C48.6645 80.3871 49.0769 79.9836 49.0769 79.4839V74.0645C49.0769 73.5648 48.6645 73.1613 48.1538 73.1613ZM47.2308 78.5806H43.5385V74.9677H47.2308V78.5806Z" fill="black"/>
<path d="M57.3846 73.1613H51.8462C51.3355 73.1613 50.9231 73.5648 50.9231 74.0645V79.4839C50.9231 79.9836 51.3355 80.3871 51.8462 80.3871H57.3846C57.8953 80.3871 58.3077 79.9836 58.3077 79.4839V74.0645C58.3077 73.5648 57.8953 73.1613 57.3846 73.1613ZM56.4615 78.5806H52.7692V74.9677H56.4615V78.5806Z" fill="black"/>
<path d="M66.6154 73.1613H61.0769C60.5663 73.1613 60.1538 73.5648 60.1538 74.0645V79.4839C60.1538 79.9836 60.5663 80.3871 61.0769 80.3871H66.6154C67.1261 80.3871 67.5385 79.9836 67.5385 79.4839V74.0645C67.5385 73.5648 67.1261 73.1613 66.6154 73.1613ZM65.6923 78.5806H62V74.9677H65.6923V78.5806Z" fill="black"/>
</svg>
