<svg width="114" height="90" viewBox="0 0 114 90" fill="none" xmlns="http://www.w3.org/2000/svg">
<path d="M19.3636 11.2012L91.6966 6.46012C102.01 5.78373 110.19 15.0619 108.282 25.2706L99.8169 70.5252C98.2596 78.8489 90.4857 84.4869 82.1344 83.3484C67.6788 81.3767 38.7687 77.4334 24.3131 75.4627C17.5472 74.5396 12.1326 69.3605 10.8822 62.6144L4.8341 29.9865C3.09789 20.6142 9.89815 11.8221 19.3636 11.2012Z" fill="#88CBFF"/>
<path d="M86.5954 3.20499L86.5954 3.20498C96.0865 1.32347 104.821 8.94218 104.289 18.6672L86.5954 3.20499ZM86.5954 3.20499L15.4903 17.2978L15.2959 16.3169L15.4903 17.2978C6.77843 19.025 1.52439 28.0183 4.27981 36.5213M86.5954 3.20499L4.27981 36.5213M28.5527 78.3918C41.7543 78.4615 66.9012 78.596 82.375 78.6788L86.9084 78.7031C94.7996 78.7447 101.338 72.5651 101.772 64.6377C101.772 64.6377 101.772 64.6377 101.772 64.6377L104.289 18.6672L28.5474 79.3918M28.5527 78.3918L28.5474 79.3918M28.5527 78.3918C28.5527 78.3918 28.5528 78.3918 28.5528 78.3918L28.5474 79.3918M28.5527 78.3918C22.1585 78.3573 16.4968 74.2065 14.5132 68.0877L4.27984 36.5214L3.32854 36.8297M28.5474 79.3918C21.7189 79.355 15.6777 74.9228 13.562 68.3961L3.32854 36.8297M3.32854 36.8297L4.27981 36.5213M3.32854 36.8297L4.27981 36.5213" stroke="#041032" stroke-width="2"/>
<path d="M71.1548 40.2371C62.2917 40.2371 55.1065 47.4264 55.1065 56.2945C55.1065 65.1626 62.2917 72.3519 71.1548 72.3519C80.0179 72.3519 87.2031 65.1626 87.2031 56.2945C87.1935 47.4306 80.0138 40.2468 71.1548 40.2371ZM71.1548 70.4628C63.3344 70.4628 56.9945 64.1194 56.9945 56.2945C56.9945 48.4697 63.3344 42.1262 71.1548 42.1262C78.9752 42.1262 85.3151 48.4697 85.3151 56.2945C85.3064 64.1157 78.9716 70.4541 71.1548 70.4628Z" fill="black"/>
<path d="M72.0988 53.6347V47.7936H70.2108V53.6347C69.4111 53.9202 68.7819 54.5498 68.4965 55.35H64.5467V57.2391H68.4965C68.9331 58.4825 70.1707 59.2592 71.4798 59.1111C72.7889 58.9626 73.8214 57.9295 73.9698 56.6197C74.1178 55.3098 73.3416 54.0715 72.0988 53.6347ZM71.1548 57.2391C70.6335 57.2391 70.2108 56.8162 70.2108 56.2945C70.2108 55.7729 70.6335 55.35 71.1548 55.35C71.6762 55.35 72.0988 55.7729 72.0988 56.2945C72.0988 56.8162 71.6762 57.2391 71.1548 57.2391Z" fill="black"/>
<path d="M58.8826 55.35H60.7706V57.2391H58.8826V55.35Z" fill="black"/>
<path d="M70.2108 66.6846H72.0988V68.5737H70.2108V66.6846Z" fill="black"/>
<path d="M81.539 55.35H83.4271V57.2391H81.539V55.35Z" fill="black"/>
<path d="M70.2108 44.0153H72.0988V45.9044H70.2108V44.0153Z" fill="black"/>
<path d="M32.45 58.1836V30.7916H75.8749V39.2926H77.763V26.0688C77.7597 23.4616 75.6486 21.3493 73.0429 21.3461H66.4347V20.4015C66.4347 18.8367 65.1667 17.5679 63.6027 17.5679C62.0387 17.5679 60.7706 18.8367 60.7706 20.4015V21.3461H47.5544V20.4015C47.5544 18.8367 46.2863 17.5679 44.7223 17.5679C43.1583 17.5679 41.8902 18.8367 41.8902 20.4015V21.3461H35.2821C32.6764 21.3493 30.5652 23.4616 30.562 26.0688V58.1836C30.5652 60.7908 32.6764 62.9032 35.2821 62.9064H54.1625V61.0173H35.2821C33.7181 61.0173 32.45 59.7485 32.45 58.1836ZM62.6587 20.4015C62.6587 19.8799 63.0813 19.457 63.6027 19.457C64.124 19.457 64.5467 19.8799 64.5467 20.4015V24.1797C64.5467 24.7014 64.124 25.1243 63.6027 25.1243C63.0813 25.1243 62.6587 24.7014 62.6587 24.1797V20.4015ZM43.7783 20.4015C43.7783 19.8799 44.201 19.457 44.7223 19.457C45.2436 19.457 45.6663 19.8799 45.6663 20.4015V24.1797C45.6663 24.7014 45.2436 25.1243 44.7223 25.1243C44.201 25.1243 43.7783 24.7014 43.7783 24.1797V20.4015ZM35.2821 23.2352H41.8902V24.1797C41.8902 25.7446 43.1583 27.0134 44.7223 27.0134C46.2863 27.0134 47.5544 25.7446 47.5544 24.1797V23.2352H60.7706V24.1797C60.7706 25.7446 62.0387 27.0134 63.6027 27.0134C65.1667 27.0134 66.4347 25.7446 66.4347 24.1797V23.2352H73.0429C74.6069 23.2352 75.8749 24.504 75.8749 26.0688V28.9025H32.45V26.0688C32.45 24.504 33.7181 23.2352 35.2821 23.2352Z" fill="black"/>
<path d="M43.7783 38.348C43.7783 37.3048 42.9329 36.4589 41.8902 36.4589H38.1142C37.0715 36.4589 36.2261 37.3048 36.2261 38.348V42.1262C36.2261 43.1695 37.0715 44.0153 38.1142 44.0153H41.8902C42.9329 44.0153 43.7783 43.1695 43.7783 42.1262V38.348ZM38.1142 42.1262V38.348H41.8902V42.1262H38.1142Z" fill="black"/>
<path d="M53.2185 38.348C53.2185 37.3048 52.3731 36.4589 51.3304 36.4589H47.5544C46.5117 36.4589 45.6663 37.3048 45.6663 38.348V42.1262C45.6663 43.1695 46.5117 44.0153 47.5544 44.0153H51.3304C52.3731 44.0153 53.2185 43.1695 53.2185 42.1262V38.348ZM47.5544 42.1262V38.348H51.3304V42.1262H47.5544Z" fill="black"/>
<path d="M62.6587 41.1817V38.348C62.6587 37.3048 61.8133 36.4589 60.7706 36.4589H56.9945C55.9519 36.4589 55.1065 37.3048 55.1065 38.348V42.1262C55.1065 43.1695 55.9519 44.0153 56.9945 44.0153H58.8826V42.1262H56.9945V38.348H60.7706V41.1817H62.6587Z" fill="black"/>
<path d="M41.8902 47.7936H38.1142C37.0715 47.7936 36.2261 48.6394 36.2261 49.6827V53.4609C36.2261 54.5041 37.0715 55.35 38.1142 55.35H41.8902C42.9329 55.35 43.7783 54.5041 43.7783 53.4609V49.6827C43.7783 48.6394 42.9329 47.7936 41.8902 47.7936ZM38.1142 53.4609V49.6827H41.8902V53.4609H38.1142Z" fill="black"/>
<path d="M51.3304 47.7936H47.5544C46.5117 47.7936 45.6663 48.6394 45.6663 49.6827V53.4609C45.6663 54.5041 46.5117 55.35 47.5544 55.35H51.3304C52.3731 55.35 53.2185 54.5041 53.2185 53.4609V49.6827C53.2185 48.6394 52.3731 47.7936 51.3304 47.7936ZM47.5544 53.4609V49.6827H51.3304V53.4609H47.5544Z" fill="black"/>
<path d="M72.0988 39.2926V38.348C72.0988 37.3048 71.2535 36.4589 70.2108 36.4589H66.4347C65.3921 36.4589 64.5467 37.3048 64.5467 38.348V39.2926H66.4347V38.348H70.2108V39.2926H72.0988Z" fill="black"/>
</svg>
